<?xml version="1.0" encoding="utf-8"?>
<!-- Generator: Adobe Illustrator 24.0.0, SVG Export Plug-In . SVG Version: 6.00 Build 0)  -->
<svg version="1.1" id="Layer_1" xmlns="http://www.w3.org/2000/svg" xmlns:xlink="http://www.w3.org/1999/xlink" x="0px" y="0px"
	 viewBox="0 0 900 1011" style="enable-background:new 0 0 900 1011;" xml:space="preserve">
<style type="text/css">
	.st0{font-family:'ArialMT';}
	.st1{font-size:15px;}
	.st2{fill:none;stroke:#000000;stroke-width:0.5;stroke-miterlimit:10;}
	.st3{font-family:'Arial-ItalicMT';}
</style>
<g id="godzilladibu02.psd_2_">
</g>
<g>
	<g>
		<g>
		</g>
	</g>
</g>
<g>
	<g>
	</g>
	<g>
	</g>
	<g>
	</g>
	<g>
	</g>
</g>
<g>
	<text transform="matrix(1 0 0 1 742.5568 24.8389)" class="st0 st1">Cerebro pequeño</text>
</g>
<line class="st2" x1="773.5" y1="175.5" x2="773.5" y2="197.5"/>
<g>
	<text transform="matrix(1 0 0 1 769.2567 171.9291)" class="st0 st1">Aliento atómico</text>
</g>
<line class="st2" x1="595.2" y1="334.2" x2="696" y2="334.2"/>
<text transform="matrix(1 0 0 1 698.9553 340.5432)" class="st0 st1">Corazón</text>
<g>
	<text transform="matrix(1 0 0 1 699.9473 506.8144)" class="st0 st1">Pulmones</text>
</g>
<g>
	<text transform="matrix(1 0 0 1 699.9473 524.319)" class="st3 st1">Puede respirar bajo el agua</text>
</g>
<path class="st2" d="M598.6,403.2c0,0,19.8,88.2,98,98.9"/>
<path class="st2" d="M265.1,317.4c0,0,0.7,25.1,24.1,27.7"/>
<g>
	<text transform="matrix(1 0 0 1 131.3517 296.2866)" class="st0 st1">Descargas eléctricas</text>
	<text transform="matrix(1 0 0 1 88.1605 313.4523)" class="st0 st1">a través de placas dorsales</text>
</g>
<g>
	<text transform="matrix(1 0 0 1 65.8191 634.6252)" class="st3 st1">La piel fue</text>
	<text transform="matrix(1 0 0 1 65.8191 652.6252)" class="st3 st1">inspirada por</text>
	<text transform="matrix(1 0 0 1 65.8191 670.6253)" class="st3 st1">las cicatrices</text>
	<text transform="matrix(1 0 0 1 65.8191 688.6254)" class="st3 st1">queloides de</text>
	<text transform="matrix(1 0 0 1 65.8191 706.6254)" class="st3 st1">los sobrevivientes</text>
	<text transform="matrix(1 0 0 1 65.8191 724.6254)" class="st3 st1">de Hiroshima</text>
</g>
<text transform="matrix(1 0 0 1 65.8192 581.6438)" class="st0 st1">Recubierto de</text>
<text transform="matrix(1 0 0 1 65.8192 599.6438)" class="st0 st1">escamas de</text>
<path class="st2" d="M159,530.8c0,0-30,15.1-30.1,38"/>
<line class="st2" x1="715.6" y1="731.4" x2="651.3" y2="731.4"/>
<text transform="matrix(1 0 0 1 720.7534 736.5427)" class="st0 st1">Huesos</text>
<path class="st2" d="M721.5,654.8c0,0-26.8-35.7-73.1-27.3"/>
<g>
	<text transform="matrix(1 0 0 1 720.7541 671.8087)" class="st0 st1">Músculos</text>
</g>
<path class="st2" d="M575.9,510c0,0,60.3,3,96.7,40.6"/>
<g>
	<text transform="matrix(1 0 0 1 670.2221 564.6594)" class="st0 st1">Caldera atómica</text>
</g>
<text transform="matrix(1 0 0 1 631.2499 265.9013)" class="st0 st1">Bolsas de uranio</text>
<path class="st2" d="M709.8,34.6c0,0,6.9-13.9,26.8-13.9"/>
<path class="st2" d="M480.2,79c41.2,11.1,76.8,58.6,93.7,98.3"/>
<g>
	<text transform="matrix(1 0 0 1 364.7057 81.9387)" class="st0 st1">Inductor de calor</text>
</g>
<line class="st2" x1="574.4" y1="306.2" x2="684.1" y2="306.2"/>
<g>
	<text transform="matrix(1 0 0 1 687.7261 310.1582)" class="st0 st1">Esternón</text>
</g>
<path class="st2" d="M594.7,288.2c0,0,35.7,5.9,49.5-16.8"/>
<text transform="matrix(1 0 0 1 65.8191 616.2734)" class="st0 st1">carbón</text>
</svg>
