<?xml version="1.0" encoding="utf-8"?>
<!-- Generator: Adobe Illustrator 24.0.0, SVG Export Plug-In . SVG Version: 6.00 Build 0)  -->
<svg version="1.1" id="Layer_1" xmlns="http://www.w3.org/2000/svg" xmlns:xlink="http://www.w3.org/1999/xlink" x="0px" y="0px"
	 viewBox="0 0 425 520.7" style="enable-background:new 0 0 425 520.7;" xml:space="preserve">
<style type="text/css">
	.st0{font-family:'ArialMT';}
	.st1{font-size:15px;}
	.st2{fill:none;stroke:#000000;stroke-width:0.5;stroke-miterlimit:10;}
	.st3{font-family:'Arial-ItalicMT';}
</style>
<g id="godzilladibu02.psd_2_">
</g>
<g>
	<g>
		<g>
		</g>
	</g>
</g>
<g>
	<g>
	</g>
	<g>
	</g>
	<g>
	</g>
	<g>
	</g>
</g>
<g>
	<text transform="matrix(1 0 0 1 179.9481 20.9081)" class="st0 st1">Cerebro pequeño</text>
</g>
<line class="st2" x1="390" y1="96.7" x2="390" y2="118.7"/>
<g>
	<text transform="matrix(1 0 0 1 374.3484 73.6893)" class="st0 st1">Aliento</text>
	<text transform="matrix(1 0 0 1 370.6793 91.6893)" class="st0 st1">atómico</text>
</g>
<line class="st2" x1="295.4" y1="188.8" x2="362.2" y2="188.8"/>
<text transform="matrix(1 0 0 1 366.6482 194.3357)" class="st0 st1">Corazón</text>
<g>
	<text transform="matrix(1 0 0 1 340.8109 268.737)" class="st0 st1">Pulmones</text>
</g>
<g>
	<text transform="matrix(1 0 0 1 326.3944 286.2407)" class="st3 st1">puede respirar</text>
	<text transform="matrix(1 0 0 1 340.8109 304.2415)" class="st3 st1">bajo el agua</text>
</g>
<path class="st2" d="M295.2,218.3c0,0,11.7,37.4,42.6,44.7"/>
<path class="st2" d="M88.1,163.9c0,0,9.1,40.6,48.9,40.6"/>
<g>
	<text transform="matrix(1 0 0 1 6.3617 124.0628)" class="st0 st1">Descarga</text>
	<text transform="matrix(1 0 0 1 6.3617 142.0628)" class="st0 st1">electrica a través</text>
	<text transform="matrix(1 0 0 1 6.3617 160.0628)" class="st0 st1">de placas</text>
</g>
<g>
	<text transform="matrix(1 0 0 1 1.8048 425.355)" class="st3 st1">La piel fue</text>
	<text transform="matrix(1 0 0 1 1.8048 443.3551)" class="st3 st1">inspirada por</text>
	<text transform="matrix(1 0 0 1 1.8048 461.3551)" class="st3 st1">las cicatrices</text>
	<text transform="matrix(1 0 0 1 1.8048 479.3551)" class="st3 st1">queloides de</text>
	<text transform="matrix(1 0 0 1 1.8048 497.3551)" class="st3 st1">los sobrevivientes</text>
	<text transform="matrix(1 0 0 1 1.8048 515.3551)" class="st3 st1">de Hiroshima</text>
</g>
<text transform="matrix(1 0 0 1 1.8048 372.8347)" class="st0 st1">Recubierto de</text>
<text transform="matrix(1 0 0 1 1.8048 390.8347)" class="st0 st1">escamas de</text>
<path class="st2" d="M90.1,300.8c0,0-48.2,11-49,57.3"/>
<text transform="matrix(1 0 0 1 362.4306 391.0598)" class="st0 st1">Huesos</text>
<g>
	<text transform="matrix(1 0 0 1 360.4308 364.6256)" class="st0 st1">Músculos</text>
</g>
<path class="st2" d="M279.3,281.7c0,0,57.7,115.4-0.8,194.3"/>
<g>
	<text transform="matrix(1 0 0 1 223.6772 482.8165)" class="st0 st1">Caldera</text>
	<text transform="matrix(1 0 0 1 223.6774 500.8165)" class="st0 st1">atómica</text>
</g>
<text transform="matrix(1 0 0 1 67.2356 74.9781)" class="st0 st1">Bolsas de uranio</text>
<path class="st2" d="M300.2,15.7c0,0,15.4-1.7,26.2,14.9"/>
<path class="st2" d="M208.9,41.7c31.4,5.9,60.1,31.3,76.9,70.9"/>
<g>
	<text transform="matrix(1 0 0 1 93.2212 44.9798)" class="st0 st1">Inductor de calor</text>
</g>
<line class="st2" x1="284.3" y1="172.1" x2="327.2" y2="172.1"/>
<g>
	<text transform="matrix(1 0 0 1 331.8418 175.9963)" class="st0 st1">Esternón</text>
</g>
<path class="st2" d="M289.9,150c0,0-40.7-74.8-105.7-78.9"/>
<path class="st2" d="M322.4,328.9c0,0,30.1-1.6,42.3,22"/>
<line class="st2" x1="323.2" y1="386.4" x2="358.1" y2="386.4"/>
<text transform="matrix(1 0 0 1 6.3619 177.5248)" class="st0 st1">dorsales</text>
<text transform="matrix(1 0 0 1 1.8047 408.4203)" class="st0 st1">carbón</text>
</svg>
